Jump_normalized_Motion_pl07
version=1
nRows=22
nColumns=43
inDegrees=yes
endheader
time		pelvis_tilt		pelvis_list		pelvis_rotation		pelvis_tx		pelvis_ty		pelvis_tz		hip_flexion_r		hip_adduction_r		hip_rotation_r		knee_angle_r		ankle_angle_r		subtalar_angle_r		mtp_angle_r		hip_flexion_l		hip_adduction_l		hip_rotation_l		knee_angle_l		ankle_angle_l		subtalar_angle_l		mtp_angle_l		lumbar_extension		lumbar_bending		lumbar_rotation		neck_flexion		neck_lateral_bending		neck_rotation		arm_flex_r		arm_add_r		arm_rot_r		elbow_flex_r		pro_sup_r		wrist_flex_r		wrist_dev_r		hand_finger_flex_r		arm_flex_l		arm_add_l		arm_rot_l		elbow_flex_l		pro_sup_l		wrist_flex_l		wrist_dev_l		hand_finger_flex_l		
0.180000		-3.289401		-13.452830		92.629850		0.018323		1.783948		1.874740		76.121920		-4.432505		7.297678		-132.245496		28.956381		-5.850199		0.011886		75.592179		2.225297		5.750865		-128.554223		31.300967		-11.518503		3.211522		-53.268672		-0.954400		-2.112309		35.509615		-0.400659		-2.402799		79.052528		-19.918594		26.637702		57.463311		68.859002		-39.304382		12.279904		51.660966		78.554387		-13.080131		14.158715		71.129182		-86.802984		-21.973389		-25.000000		-90.000210		
0.182929		-3.327000		-13.661203		92.592839		0.018297		1.783562		1.873391		76.209210		-4.428181		7.371452		-132.290299		28.953482		-5.806716		0.017873		75.673039		2.233035		5.684590		-128.604945		31.274320		-11.632613		3.342077		-53.100191		-1.012452		-2.159517		35.605446		-0.342844		-2.367522		80.520140		-19.663125		27.074372		57.500664		68.654246		-39.029310		12.175345		51.474700		79.910743		-12.844671		14.540867		71.053050		-86.934997		-22.032878		-25.000000		-90.000210		
0.185859		-3.344570		-13.900422		92.565492		0.018308		1.783192		1.871979		76.313053		-4.416500		7.411316		-132.308993		28.953264		-5.790393		0.025388		75.773625		2.242374		5.652896		-128.641563		31.273305		-11.715392		3.410350		-52.902983		-1.055708		-2.194605		35.728563		-0.297299		-2.338732		81.912748		-19.331356		27.322006		57.573551		68.589627		-38.815967		12.106566		51.368522		81.232970		-12.573214		14.832923		71.003612		-87.052933		-22.043985		-25.000000		-90.000210		
0.188788		-3.385297		-14.078031		92.515615		0.018287		1.782831		1.870530		76.365100		-4.401759		7.482870		-132.357443		28.915693		-5.767529		0.040148		75.810168		2.252083		5.585258		-128.710495		31.209524		-11.877955		3.545350		-52.748214		-1.124963		-2.248952		35.743801		-0.197166		-2.286299		83.454680		-19.097797		27.914269		57.532890		68.411019		-38.374032		12.040788		51.168293		82.668422		-12.481816		15.447480		70.913675		-87.426023		-22.119261		-25.000000		-90.000210		
0.191717		-3.399656		-14.299898		92.488327		0.018241		1.782519		1.869005		76.433795		-4.400201		7.515586		-132.380519		28.919405		-5.752571		0.057745		75.879554		2.266245		5.551425		-128.760638		31.208394		-11.988058		3.638264		-52.563534		-1.159365		-2.272702		35.913791		-0.160379		-2.244631		84.863286		-18.754566		28.129480		57.568872		68.299333		-38.127019		11.933547		51.005026		83.995235		-12.223340		15.743976		70.858313		-87.711822		-22.096214		-25.000000		-90.000210		
0.194646		-3.386650		-14.535093		92.471512		0.018164		1.782247		1.867485		76.508036		-4.382470		7.529072		-132.396450		28.916085		-5.727921		0.071770		75.960092		2.268580		5.538678		-128.802522		31.207071		-12.077543		3.697775		-52.365317		-1.172409		-2.270982		36.064000		-0.106774		-2.213539		86.299810		-18.448671		28.407730		57.605877		68.258995		-37.893709		11.866082		50.892277		85.367615		-11.985463		16.109266		70.780860		-87.959974		-22.119541		-25.000000		-90.000210		
0.197576		-3.357515		-14.654006		92.440306		0.018135		1.782265		1.865858		76.417658		-4.348998		7.540888		-132.355398		28.888010		-5.681373		0.097556		75.892782		2.231690		5.546608		-128.827518		31.132645		-12.245725		3.819371		-52.291158		-1.176399		-2.278073		36.009628		-0.046421		-2.157127		87.868140		-18.272379		29.077806		57.658023		68.029626		-37.406929		11.736603		50.681140		86.816786		-11.961364		16.675894		70.742894		-88.714315		-22.195052		-25.000000		-90.000210		
0.200505		-3.296178		-14.793954		92.423541		0.018028		1.782332		1.864216		76.337729		-4.312981		7.509568		-132.327470		28.887381		-5.622120		0.128137		75.843621		2.194328		5.570257		-128.842747		31.100508		-12.378057		3.976304		-52.205855		-1.141240		-2.242982		36.119241		-0.029848		-2.098044		89.417438		-18.024516		29.569287		57.662434		67.671095		-37.046362		11.483284		50.365321		88.238658		-11.798179		17.025960		70.624484		-89.608031		-22.150082		-25.000000		-90.000210		
0.203434		-3.239697		-15.006579		92.408825		0.017909		1.782324		1.862514		76.333672		-4.280991		7.483403		-132.296732		28.893835		-5.578889		0.144460		75.862325		2.154084		5.589316		-128.852025		31.101170		-12.443951		4.083926		-52.038100		-1.109891		-2.199859		36.249657		-0.024928		-2.060605		90.851309		-17.727447		29.850656		57.725795		67.439006		-36.844178		11.280333		50.146636		89.575087		-11.537643		17.211465		70.552791		-90.140316		-22.069388		-25.000000		-90.000210		
0.206364		-3.180099		-15.229015		92.381668		0.017829		1.782321		1.860799		76.338719		-4.232164		7.456151		-132.268048		28.882049		-5.522284		0.147269		75.890299		2.098024		5.611355		-128.861983		31.096591		-12.498218		4.151516		-51.857864		-1.091470		-2.145540		36.333479		-0.005480		-2.028722		92.318653		-17.449935		30.190237		57.768879		67.283908		-36.634595		11.130772		50.026299		90.932027		-11.294168		17.440458		70.473465		-90.499515		-21.993715		-24.989822		-90.000210		
0.209293		-3.124768		-15.476014		92.362133		0.017757		1.782401		1.859029		76.355598		-4.183370		7.428470		-132.222401		28.878784		-5.472900		0.149261		75.914359		2.047118		5.627061		-128.834485		31.099562		-12.545362		4.212096		-51.658031		-1.072152		-2.107895		36.427946		0.007656		-2.000561		93.750249		-17.137788		30.447851		57.819218		67.133355		-36.456260		10.974650		49.918243		92.267075		-11.030735		17.600691		70.389394		-90.814582		-21.890382		-24.984328		-90.000210		
0.212222		-3.068299		-15.683644		92.324166		0.017753		1.782446		1.857252		76.340273		-4.127932		7.391722		-132.200258		28.836647		-5.400162		0.140927		75.926522		1.991107		5.657560		-128.855894		31.065346		-12.603084		4.312565		-51.485601		-1.073372		-2.056462		36.460895		0.069729		-1.965034		95.329769		-16.904474		31.020277		57.726102		66.817440		-36.138998		10.758576		49.784129		93.706846		-10.887533		18.032742		70.236587		-91.336222		-21.733811		-24.966706		-90.000210		
0.215152		-3.049664		-16.000796		92.323649		0.017740		1.782569		1.855369		76.407110		-4.116181		7.381587		-132.137512		28.854211		-5.375290		0.142476		75.980556		1.971607		5.656994		-128.780473		31.094481		-12.632330		4.360814		-51.218548		-1.071259		-2.062284		36.602344		0.073360		-1.944877		96.649286		-16.507870		31.037945		57.791577		66.690698		-36.055960		10.588640		49.703094		94.975778		-10.560879		18.068369		70.144897		-91.500916		-21.573468		-24.936025		-90.000210		
0.218081		-3.044630		-16.269759		92.305252		0.017739		1.782604		1.853502		76.446155		-4.112879		7.382313		-132.119222		28.810690		-5.307330		0.135238		76.032110		1.972479		5.654374		-128.774985		31.056196		-12.683767		4.474084		-50.976218		-1.106013		-2.074098		36.619571		0.182797		-1.924560		98.175509		-16.265124		31.525577		57.684796		66.356021		-35.767693		10.349526		49.590287		96.425808		-10.437698		18.579153		69.961594		-91.906775		-21.389238		-24.868998		-90.000210		
0.221010		-3.053139		-16.599933		92.311113		0.017741		1.782761		1.851529		76.508653		-4.129325		7.396816		-132.058702		28.814932		-5.263093		0.140838		76.096850		1.985663		5.635698		-128.695043		31.064811		-12.729105		4.537235		-50.688154		-1.130897		-2.103689		36.733870		0.239802		-1.912049		99.525874		-15.921974		31.620725		57.700566		66.216569		-35.655909		10.172716		49.523204		97.747790		-10.158942		18.756460		69.833273		-92.039939		-21.244165		-24.855050		-90.000210		
0.223939		-3.074304		-16.916685		92.306673		0.017743		1.782905		1.849505		76.557547		-4.164620		7.417827		-131.999251		28.804462		-5.200109		0.148680		76.156355		2.014147		5.618784		-128.643399		31.054186		-12.792355		4.615467		-50.407571		-1.175738		-2.135733		36.837293		0.331638		-1.900701		100.928331		-15.625560		31.840942		57.659369		66.046820		-35.497145		9.984296		49.457021		99.127412		-9.928406		19.062758		69.665793		-92.205381		-21.106480		-24.852795		-90.000210		
0.226869		-3.081135		-17.261138		92.301721		0.017724		1.783161		1.847427		76.605726		-4.190971		7.424024		-131.900922		28.813368		-5.151152		0.159898		76.215971		2.037841		5.611707		-128.556685		31.071862		-12.847573		4.655533		-50.107945		-1.207423		-2.151923		36.992963		0.385553		-1.889150		102.259122		-15.275786		31.879619		57.655913		66.005288		-35.432057		9.844605		49.407291		100.446467		-9.612526		19.173135		69.505472		-92.241815		-20.991956		-24.874627		-90.000210		
0.229798		-3.083332		-17.581292		92.297755		0.017676		1.783471		1.845298		76.624111		-4.211250		7.435650		-131.806011		28.806370		-5.083268		0.174497		76.246485		2.064002		5.601197		-128.474046		31.061609		-12.919575		4.695048		-49.830953		-1.236812		-2.165859		37.111987		0.475634		-1.880325		103.637746		-14.978928		32.052780		57.621630		65.984602		-35.326009		9.704178		49.367654		101.816005		-9.345957		19.390858		69.325899		-92.282043		-20.900158		-24.905052		-90.000210		
0.232727		-3.093090		-17.767646		92.295150		0.017579		1.784045		1.843012		76.478206		-4.223632		7.481568		-131.723114		28.778654		-4.956587		0.218197		76.116470		2.086223		5.553002		-128.382346		30.962390		-13.087113		4.782370		-49.701445		-1.258112		-2.186261		37.133926		0.611743		-1.861385		105.160803		-14.826501		32.618918		57.538239		65.859785		-35.080295		9.399046		49.327650		103.285746		-9.240280		19.895523		69.157064		-92.486058		-20.754283		-24.854233		-90.000210		
0.235657		-3.089697		-18.088413		92.273853		0.017509		1.784538		1.840731		76.467855		-4.223638		7.472012		-131.592710		28.801249		-4.907904		0.246297		76.107480		2.111759		5.537980		-128.282689		30.982536		-13.169718		4.827230		-49.433511		-1.275099		-2.183252		37.327216		0.623446		-1.835347		106.472904		-14.451248		32.639439		57.474479		65.825470		-35.060305		9.181871		49.251621		104.586562		-8.921638		19.911723		68.950574		-92.526855		-20.556624		-24.813099		-90.000210		
0.238586		-3.068200		-18.327610		92.255876		0.017435		1.785206		1.838396		76.343943		-4.207559		7.472490		-131.437139		28.782177		-4.823571		0.294068		76.003245		2.108853		5.530636		-128.161702		30.934902		-13.290952		4.896422		-49.246262		-1.278302		-2.186219		37.388221		0.679404		-1.798421		107.907822		-14.171444		33.017055		57.338517		65.793295		-34.942779		8.842773		49.149355		105.979995		-8.748672		20.199880		68.735125		-92.632409		-20.312475		-24.671111		-90.000210		
0.241515		-3.042710		-18.583424		92.253179		0.017360		1.785954		1.835989		76.214428		-4.185685		7.474903		-131.258366		28.778692		-4.755465		0.346148		75.885185		2.094633		5.517092		-127.993455		30.904045		-13.399581		4.968959		-49.039449		-1.261476		-2.199661		37.439110		0.699133		-1.756440		109.275718		-13.860751		33.302671		57.236274		65.737319		-34.846786		8.476089		49.036901		107.312834		-8.567452		20.403296		68.547182		-92.737815		-20.031211		-24.486968		-90.000210		
